# xmcd
#
# Track frame offsets:
#	150
#	13179
#	30087
#	47461
#	64672
#	79250
#	97974
#	117586
#	138770
#	151554
#	173991
#	190945
#	206422
#
# Disc length: 2877 seconds
#
# Revision: 0
# Processed by: cddbd v1.5.2PL0 Copyright (c) Steve Scherf et al.
# Submitted via: EZCDAudioConverter 4.0.5.1
#
DISCID=990b3b0d
DTITLE=Neil Young - Four Miles from Here
DYEAR=1900
DGENRE=
TTITLE0=Better Place
TTITLE1=Dusty Line
TTITLE2=Radio Song
TTITLE3=Reason to Believe
TTITLE4=Lost and Found
TTITLE5=Gone
TTITLE6=The First One
TTITLE7=Going Down
TTITLE8=Samuel Jackson
TTITLE9=Catch You
TTITLE10=Where We Belong
TTITLE11=Trunk Tale
TTITLE12=Lullaby
EXTD=
EXTT0=
EXTT1=
EXTT2=
EXTT3=
EXTT4=
EXTT5=
EXTT6=
EXTT7=
EXTT8=
EXTT9=
EXTT10=
EXTT11=
EXTT12=
PLAYORDER=
